<svg width="50" height="50" viewBox="0 0 50 50" fill="none" xmlns="http://www.w3.org/2000/svg">
<path fill-rule="evenodd" clip-rule="evenodd" d="M13.1875 36.8125C12.7486 36.373 12.5021 35.7773 12.5021 35.1562C12.5021 34.5352 12.7486 33.9395 13.1875 33.5L29.5 17.1875H17.9688C17.3472 17.1875 16.751 16.9406 16.3115 16.501C15.8719 16.0615 15.625 15.4654 15.625 14.8438C15.625 14.2221 15.8719 13.626 16.3115 13.1865C16.751 12.7469 17.3472 12.5 17.9688 12.5H35.1563C35.7779 12.5 36.374 12.7469 36.8135 13.1865C37.2531 13.626 37.5 14.2221 37.5 14.8438V32.0312C37.5 32.6529 37.2531 33.249 36.8135 33.6885C36.374 34.1281 35.7779 34.375 35.1563 34.375C34.5347 34.375 33.9385 34.1281 33.499 33.6885C33.0594 33.249 32.8125 32.6529 32.8125 32.0312V20.5L16.5 36.8125C16.0606 37.2514 15.4649 37.4979 14.8438 37.4979C14.2227 37.4979 13.627 37.2514 13.1875 36.8125Z" fill="black"/>
</svg>
